<svg width="18" height="20" viewBox="0 0 18 20" fill="none" xmlns="http://www.w3.org/2000/svg">
<rect width="18" height="20" fill="white"/>
<path d="M17.5448 13.3386C16.8241 12.607 16.3442 11.6786 16.1676 10.6744L15.5089 5.95899C15.1954 4.50575 14.3843 3.20257 13.2115 2.26752C12.0386 1.33247 10.5751 0.822262 9.06586 0.822262C7.55659 0.822262 6.0931 1.33247 4.92026 2.26752C3.74741 3.20257 2.93637 4.50575 2.62282 5.95899L1.86833 10.6744C1.66705 11.6871 1.17205 12.6206 0.443184 13.3622C0.161682 13.6698 0.00410032 14.0681 8.00832e-05 14.4821C-0.00388943 14.8916 0.15147 15.2871 0.434285 15.5874C0.7171 15.8877 1.10592 16.0701 1.52101 16.0972H16.479C16.8941 16.0701 17.2829 15.8877 17.5657 15.5874C17.8485 15.2871 18.0039 14.8916 17.9999 14.4821C17.9985 14.0584 17.8362 13.6505 17.5448 13.3386Z" fill="#696969"/>
<path d="M6.73054 17.5006C6.66543 17.4969 6.60041 17.5092 6.54126 17.5362C6.48211 17.5632 6.43067 17.6043 6.39154 17.6556C6.35241 17.707 6.32679 17.7671 6.31699 17.8305C6.30718 17.894 6.31349 17.9589 6.33533 18.0193C6.49727 18.5893 6.84419 19.0914 7.32315 19.4491C7.8021 19.8068 8.3868 20.0004 8.988 20.0004C9.58921 20.0004 10.1739 19.8068 10.6529 19.4491C11.1318 19.0914 11.4788 18.5893 11.6407 18.0193C11.6625 17.9589 11.6688 17.894 11.659 17.8305C11.6492 17.7671 11.6236 17.707 11.5845 17.6556C11.5453 17.6043 11.4939 17.5632 11.4348 17.5362C11.3756 17.5092 11.3106 17.4969 11.2455 17.5006H6.73054Z" fill="#696969"/>
<path d="M10.1318 1.14946C10.1487 1.14813 10.1652 1.14328 10.1801 1.13521C10.195 1.12715 10.2079 1.11605 10.2181 1.10267C10.2283 1.08929 10.2355 1.07394 10.2392 1.05761C10.2429 1.04129 10.243 1.02438 10.2396 1.008C10.1827 0.723981 10.0275 0.468192 9.80029 0.284346C9.57313 0.100501 9.28817 -7.25468e-06 8.99409 -7.25468e-06C8.70001 -7.25468e-06 8.41505 0.100501 8.18788 0.284346C7.96072 0.468192 7.80546 0.723981 7.7486 1.008C7.74515 1.02438 7.74526 1.04129 7.74896 1.05761C7.75266 1.07394 7.75986 1.08929 7.77005 1.10267C7.78025 1.11605 7.79321 1.12715 7.8081 1.13521C7.82298 1.14328 7.83944 1.14813 7.85638 1.14946H10.1318Z" fill="#696969"/>
</svg>
