<svg width="20" height="19" viewBox="0 0 20 19" fill="none" xmlns="http://www.w3.org/2000/svg">
<path d="M19.7945 2.54384C19.7189 2.4463 19.6225 2.36812 19.5127 2.3154C19.403 2.26268 19.283 2.23685 19.162 2.23993H4.40606L4.1552 0.720374C4.12172 0.518615 4.02015 0.335597 3.86844 0.203744C3.71673 0.0718917 3.5247 -0.000284678 3.32636 -4.68451e-06H0.817947C0.601011 -4.68451e-06 0.392956 0.0889492 0.23956 0.247266C0.0861632 0.405583 -9.31916e-06 0.620295 -9.31916e-06 0.844189C0.00551121 1.06629 0.0934674 1.27773 0.245684 1.43483C0.3979 1.59193 0.602751 1.68269 0.817947 1.68838H2.00671C2.17666 1.68859 2.34109 1.75087 2.47083 1.86417C2.60058 1.97748 2.6873 2.1345 2.71563 2.30746L4.77686 14.4076C4.80423 14.5728 4.87925 14.7256 4.9921 14.8461C5.10495 14.9665 5.2504 15.0491 5.40943 15.0829H16.959C17.155 15.0353 17.3271 14.9147 17.4423 14.7443C17.5575 14.5739 17.6078 14.3656 17.5835 14.1593C17.5592 13.953 17.462 13.7632 17.3105 13.6262C17.1591 13.4893 16.964 13.4148 16.7626 13.4171H6.88172C6.71334 13.4173 6.55021 13.3566 6.42069 13.2456C6.29117 13.1345 6.20345 12.9801 6.17284 12.8092L6.03105 11.965H17.8205C18.0133 11.9616 18.1993 11.8907 18.3479 11.7639C18.4965 11.6371 18.599 11.462 18.6385 11.2672L19.9909 3.26422C20.0087 3.13666 20.0004 3.00665 19.9666 2.88257C19.9328 2.7585 19.8742 2.64312 19.7945 2.54384Z" fill="#696969"/>
<path d="M6.66293 18.9997C7.55437 18.9997 8.27703 18.2539 8.27703 17.3338C8.27703 16.4138 7.55437 15.668 6.66293 15.668C5.77149 15.668 5.04883 16.4138 5.04883 17.3338C5.04883 18.2539 5.77149 18.9997 6.66293 18.9997Z" fill="#696969"/>
<path d="M15.3993 18.9997C16.2907 18.9997 17.0134 18.2539 17.0134 17.3338C17.0134 16.4138 16.2907 15.668 15.3993 15.668C14.5078 15.668 13.7852 16.4138 13.7852 17.3338C13.7852 18.2539 14.5078 18.9997 15.3993 18.9997Z" fill="#696969"/>
</svg>
