<svg width="31" height="18" viewBox="0 0 31 18" fill="none" xmlns="http://www.w3.org/2000/svg">
<path d="M0.5 16.5C0.5 17.3284 1.17157 18 2 18H29C29.8284 18 30.5 17.3284 30.5 16.5C30.5 15.6716 29.8284 15 29 15H2C1.17157 15 0.5 15.6716 0.5 16.5ZM0.5 9C0.5 9.82843 1.17157 10.5 2 10.5H29C29.8284 10.5 30.5 9.82843 30.5 9C30.5 8.17157 29.8284 7.5 29 7.5H2C1.17157 7.5 0.5 8.17157 0.5 9ZM2 0C1.17157 0 0.5 0.671573 0.5 1.5C0.5 2.32843 1.17157 3 2 3H29C29.8284 3 30.5 2.32843 30.5 1.5C30.5 0.671573 29.8284 0 29 0H2Z" fill="#2E2E2E"/>
</svg>
