<svg width="22" height="19" viewBox="0 0 22 19" fill="none" xmlns="http://www.w3.org/2000/svg">
<path d="M10.5506 1.28906H10.5409C9.86138 1.28906 9.31055 1.84413 9.31055 2.52883V16.6976C9.31055 17.3823 9.86138 17.9374 10.5409 17.9374H10.5506C11.2301 17.9374 11.7809 17.3823 11.7809 16.6976V2.52883C11.7809 1.84413 11.2301 1.28906 10.5506 1.28906Z" fill="#696969"/>
<path fill-rule="evenodd" clip-rule="evenodd" d="M10.5506 2.27301H10.5409C10.4007 2.27301 10.287 2.38754 10.287 2.52883V16.6976C10.287 16.8389 10.4007 16.9534 10.5409 16.9534H10.5506C10.6908 16.9534 10.8045 16.8389 10.8045 16.6976V2.52883C10.8045 2.38754 10.6908 2.27301 10.5506 2.27301ZM10.5409 1.28906H10.5506C11.2301 1.28906 11.7809 1.84413 11.7809 2.52883V16.6976C11.7809 17.3823 11.2301 17.9374 10.5506 17.9374H10.5409C9.86138 17.9374 9.31055 17.3823 9.31055 16.6976V2.52883C9.31055 1.84413 9.86138 1.28906 10.5409 1.28906Z" fill="#696969"/>
<path d="M1.32422 2.5297V2.53955C1.32422 3.22425 1.87504 3.7793 2.55453 3.7793L18.5389 3.7793C19.2184 3.7793 19.7692 3.22425 19.7692 2.53955V2.5297C19.7692 1.84499 19.2184 1.28992 18.5389 1.28992L2.55453 1.28992C1.87504 1.28992 1.32422 1.84499 1.32422 2.5297Z" fill="#696969"/>
<path fill-rule="evenodd" clip-rule="evenodd" d="M2.30066 2.5297V2.53955C2.30066 2.68082 2.4143 2.79535 2.55453 2.79535L18.5389 2.79535C18.6791 2.79535 18.7927 2.68081 18.7927 2.53955V2.5297C18.7927 2.38841 18.6791 2.27386 18.5389 2.27386L2.55453 2.27386C2.41433 2.27386 2.30066 2.3884 2.30066 2.5297ZM1.32422 2.53955V2.5297C1.32422 1.84499 1.87504 1.28992 2.55453 1.28992L18.5389 1.28992C19.2184 1.28992 19.7692 1.84499 19.7692 2.5297V2.53955C19.7692 3.22425 19.2184 3.7793 18.5389 3.7793L2.55453 3.7793C1.87504 3.7793 1.32422 3.22425 1.32422 2.53955Z" fill="#696969"/>
<path d="M5.57031 17.7504V17.7603C5.57031 18.445 6.12114 19 6.80062 19H14.2899C14.9694 19 15.5203 18.445 15.5203 17.7603V17.7504C15.5203 17.0657 14.9694 16.5106 14.2899 16.5106H6.80062C6.12114 16.5106 5.57031 17.0657 5.57031 17.7504Z" fill="#696969"/>
<path fill-rule="evenodd" clip-rule="evenodd" d="M6.54675 17.7504V17.7603C6.54675 17.9015 6.6604 18.0161 6.80062 18.0161H14.2899C14.4302 18.0161 14.5438 17.9015 14.5438 17.7603V17.7504C14.5438 17.6091 14.4301 17.4946 14.2899 17.4946H6.80062C6.66043 17.4946 6.54675 17.6091 6.54675 17.7504ZM5.57031 17.7603V17.7504C5.57031 17.0657 6.12114 16.5106 6.80062 16.5106H14.2899C14.9694 16.5106 15.5203 17.0657 15.5203 17.7504V17.7603C15.5203 18.445 14.9694 19 14.2899 19H6.80062C6.12114 19 5.57031 18.445 5.57031 17.7603Z" fill="#696969"/>
<path d="M10.5505 5.05747C11.9364 5.05747 13.0599 3.92532 13.0599 2.52873C13.0599 1.13215 11.9364 0 10.5505 0C9.16454 0 8.04102 1.13215 8.04102 2.52873C8.04102 3.92532 9.16454 5.05747 10.5505 5.05747Z" fill="#696969"/>
<path fill-rule="evenodd" clip-rule="evenodd" d="M10.5505 4.07352C11.3971 4.07352 12.0835 3.3819 12.0835 2.52873C12.0835 1.67557 11.3971 0.983943 10.5505 0.983943C9.70381 0.983943 9.01746 1.67557 9.01746 2.52873C9.01746 3.3819 9.70381 4.07352 10.5505 4.07352ZM13.0599 2.52873C13.0599 3.92532 11.9364 5.05747 10.5505 5.05747C9.16454 5.05747 8.04102 3.92532 8.04102 2.52873C8.04102 1.13215 9.16454 0 10.5505 0C11.9364 0 13.0599 1.13215 13.0599 2.52873Z" fill="#696969"/>
<path d="M0.835115 11.7875C0.703982 11.7835 0.57384 11.8116 0.455868 11.8694C0.337896 11.9272 0.235643 12.0131 0.157852 12.1195C0.0800607 12.226 0.0290689 12.3499 0.00927583 12.4806C-0.0105173 12.6113 0.0014616 12.7448 0.0441998 12.8698C0.343078 13.5488 0.831066 14.1257 1.44897 14.5307C2.06687 14.9357 2.78812 15.1512 3.52522 15.1512C4.26231 15.1512 4.98356 14.9357 5.60146 14.5307C6.21936 14.1257 6.70735 13.5488 7.00623 12.8698C7.04897 12.7448 7.06095 12.6113 7.04115 12.4806C7.02136 12.3499 6.9704 12.226 6.89261 12.1195C6.81482 12.0131 6.71253 11.9272 6.59456 11.8694C6.47659 11.8116 6.34645 11.7835 6.21532 11.7875H0.835115Z" fill="#696969"/>
<path fill-rule="evenodd" clip-rule="evenodd" d="M1.08077 12.7714C1.2952 13.1629 1.57323 13.4482 1.98134 13.7059C2.47612 14.0423 2.92841 14.1775 3.52522 14.1673C4.12203 14.1775 4.57431 14.0423 5.0691 13.7059C5.47721 13.4482 5.75524 13.1629 5.96967 12.7714H1.08077ZM7.00623 12.8698C6.70736 13.5488 6.21937 14.1257 5.60147 14.5307C4.98357 14.9357 4.26231 15.1512 3.52522 15.1512C2.78813 15.1512 2.06687 14.9357 1.44897 14.5307C0.831069 14.1257 0.343081 13.5488 0.0442027 12.8698C0.00146454 12.7448 -0.0105143 12.6113 0.00927876 12.4806C0.0290719 12.3499 0.0800637 12.226 0.157855 12.1195C0.235646 12.0131 0.337899 11.9273 0.455871 11.8694C0.573843 11.8116 0.703985 11.7835 0.835118 11.7875H6.21532C6.34645 11.7835 6.47659 11.8116 6.59457 11.8694C6.71254 11.9273 6.81482 12.0131 6.89261 12.1195C6.9704 12.226 7.02136 12.3499 7.04116 12.4806C7.06095 12.6113 7.04897 12.7448 7.00623 12.8698Z" fill="#696969"/>
<path fill-rule="evenodd" clip-rule="evenodd" d="M3.55175 2.38086C3.87619 2.38149 4.16155 2.59715 4.25299 2.91083L7.00656 12.3567C7.07159 12.5798 7.02847 12.8207 6.8902 13.0069C6.75192 13.193 6.53467 13.3026 6.30391 13.3026H0.757728C0.52648 13.3026 0.308818 13.1926 0.170602 13.0057C0.032386 12.8189 -0.0101441 12.5773 0.0558807 12.354L2.8485 2.90812C2.94114 2.59479 3.22731 2.38023 3.55175 2.38086ZM1.74004 11.8267H5.32552L3.5454 5.72019L1.74004 11.8267Z" fill="#696969"/>
<path d="M14.8957 11.7875C14.7646 11.7835 14.6344 11.8116 14.5164 11.8694C14.3985 11.9272 14.2962 12.0131 14.2184 12.1195C14.1406 12.226 14.0896 12.3499 14.0698 12.4806C14.05 12.6113 14.062 12.7448 14.1048 12.8698C14.4036 13.5488 14.8916 14.1257 15.5095 14.5307C16.1274 14.9357 16.8487 15.1512 17.5858 15.1512C18.3228 15.1512 19.0441 14.9357 19.662 14.5307C20.2799 14.1257 20.7679 13.5488 21.0668 12.8698C21.1095 12.7448 21.1215 12.6113 21.1017 12.4806C21.0819 12.3499 21.0309 12.226 20.9531 12.1195C20.8754 12.0131 20.7731 11.9272 20.6551 11.8694C20.5371 11.8116 20.407 11.7835 20.2759 11.7875H14.8957Z" fill="#696969"/>
<path fill-rule="evenodd" clip-rule="evenodd" d="M15.1413 12.7714C15.3558 13.1629 15.6338 13.4482 16.0419 13.7059C16.5367 14.0423 16.989 14.1775 17.5858 14.1673C18.1826 14.1775 18.6349 14.0423 19.1296 13.7059C19.5377 13.4482 19.8158 13.1629 20.0302 12.7714H15.1413ZM21.0668 12.8698C20.7679 13.5488 20.2799 14.1257 19.662 14.5307C19.0441 14.9357 18.3228 15.1512 17.5858 15.1512C16.8487 15.1512 16.1274 14.9357 15.5095 14.5307C14.8916 14.1257 14.4037 13.5488 14.1048 12.8698C14.062 12.7448 14.05 12.6113 14.0698 12.4806C14.0896 12.3499 14.1406 12.226 14.2184 12.1195C14.2962 12.0131 14.3985 11.9273 14.5164 11.8694C14.6344 11.8116 14.7646 11.7835 14.8957 11.7875H20.2759C20.407 11.7835 20.5371 11.8116 20.6551 11.8694C20.7731 11.9273 20.8754 12.0131 20.9532 12.1195C21.0309 12.226 21.0819 12.3499 21.1017 12.4806C21.1215 12.6113 21.1095 12.7448 21.0668 12.8698Z" fill="#696969"/>
<path fill-rule="evenodd" clip-rule="evenodd" d="M17.6127 2.38086C17.9372 2.38164 18.2226 2.59762 18.3137 2.91151L21.0575 12.3574C21.1223 12.5804 21.0791 12.8212 20.9408 13.0072C20.8025 13.1932 20.5853 13.3026 20.3547 13.3026H14.8183C14.587 13.3026 14.3694 13.1926 14.2311 13.0057C14.0929 12.8189 14.0504 12.5773 14.1164 12.354L16.909 2.90812C17.0017 2.59467 17.2881 2.38008 17.6127 2.38086ZM15.8006 11.8267H19.3773L17.6047 5.72441L15.8006 11.8267Z" fill="#696969"/>
</svg>
