<svg width="13" height="16" viewBox="0 0 13 16" fill="none" xmlns="http://www.w3.org/2000/svg">
<path d="M2.13449 6.53367C2.53379 8.58211 3.66468 10.4879 5.19533 11.9514L7.00122 10.9311C7.24745 10.792 7.52225 10.7992 7.67925 10.9812C8.31437 11.4345 9.04941 11.7772 9.88444 12.0093C10.2698 12.1165 10.4553 12.4448 10.3482 12.8302L9.74114 15.014C9.63401 15.3994 9.30567 15.5849 8.92028 15.4778C2.88254 13.7994 -0.642066 7.56091 1.03629 1.52317C1.14342 1.13778 1.47177 0.952279 1.85716 1.05941L4.10525 1.68433C4.49064 1.79146 4.67614 2.1198 4.56901 2.50519C4.35476 3.27596 4.26896 4.08245 4.31163 4.92464C4.32229 5.13519 4.18664 5.37426 4.00461 5.53125L2.13449 6.53367Z" fill="#A1A1A1"/>
</svg>
