<svg width="119" height="125" viewBox="0 0 119 125" fill="none" xmlns="http://www.w3.org/2000/svg">
<path d="M51.0167 3.30492C55.9492 0.471276 62.0263 0.471276 66.9589 3.30492L107.036 26.3284C111.968 29.1621 115.007 34.3989 115.007 40.0662V86.1132C115.007 91.7805 111.968 97.0173 107.036 99.8509L66.9588 122.874C62.0263 125.708 55.9492 125.708 51.0167 122.874L10.9398 99.8509C6.0073 97.0173 2.96875 91.7805 2.96875 86.1132V40.0662C2.96875 34.3989 6.0073 29.1621 10.9398 26.3284L51.0167 3.30492Z" fill="#7FB1D8"/>
<path d="M68.7428 14.2346C73.2682 13.3585 77.9286 14.953 80.9685 18.4176L105.668 46.5673C108.708 50.0318 109.665 54.8401 108.18 59.1808L96.1107 94.4494C94.6253 98.7901 90.9225 102.004 86.3972 102.88L49.6287 109.999C45.1033 110.875 40.4429 109.281 37.403 105.816L12.7037 77.6663C9.66378 74.2018 8.70618 69.3935 10.1916 65.0528L22.2608 29.7842C23.7462 25.4434 27.449 22.2297 31.9743 21.3535L68.7428 14.2346Z" fill="#88C3F1"/>
<path d="M99.6771 87.4651C99.6771 89.3074 98.1712 90.8029 96.3136 90.8029H26.3838C24.5255 90.8029 23.0195 89.3074 23.0195 87.4651V43.2115C23.0195 41.3705 24.5255 39.875 26.3838 39.875H96.3136C98.1712 39.875 99.6771 41.3705 99.6771 43.2115V87.4651Z" fill="#4A4A5D"/>
<path opacity="0.15" d="M71.0785 45.7285C58.1389 45.7285 47.6504 56.1298 47.6504 68.9633C47.6504 78.999 54.0652 87.5486 63.0505 90.7989H79.1065C88.0918 87.5486 94.5079 78.9997 94.5079 68.9633C94.5079 56.1305 84.0187 45.7285 71.0785 45.7285Z" fill="black"/>
<path d="M39.7358 40.2367C39.7358 42.5254 37.8653 44.3791 35.5589 44.3791H31.8586C29.5508 44.3791 27.6816 42.5247 27.6816 40.2367V33.623C27.6816 31.3362 29.5515 29.4805 31.8586 29.4805H35.5589C37.8653 29.4805 39.7358 31.3362 39.7358 33.623V40.2367Z" fill="#0D0D0D"/>
<path d="M44.3992 43.9933C44.3992 38.1385 39.6126 33.3906 33.709 33.3906C27.8048 33.3906 23.0195 38.1385 23.0195 43.9933V80.1983C23.0195 86.0518 27.8048 90.7996 33.709 90.7996C39.6126 90.7996 44.3992 86.0518 44.3992 80.1983V43.9933Z" fill="#4A4A5D"/>
<path d="M35.1328 33.498V90.6949C40.3628 90.0034 44.3992 85.5727 44.3992 80.1987V43.9943C44.3992 38.6196 40.3628 34.1876 35.1328 33.498Z" fill="#393947"/>
<path d="M89.7646 43.2656C91.9203 46.2001 92.5667 49.1271 90.7111 49.1271H51.4491C49.5928 49.1271 50.2398 46.1994 52.3949 43.2656L59.1946 34.0083C59.9279 33.009 61.1534 32.2852 62.0102 32.2852H80.1472C81.0041 32.2852 82.2303 33.0083 82.9642 34.0083L89.7646 43.2656Z" fill="#4A4A5D"/>
<path d="M71.0792 89.0511C84.0185 89.0511 94.5079 78.6482 94.5079 65.8156C94.5079 52.983 84.0185 42.5801 71.0792 42.5801C58.1398 42.5801 47.6504 52.983 47.6504 65.8156C47.6504 78.6482 58.1398 89.0511 71.0792 89.0511Z" fill="#0D0D0D"/>
<path d="M71.0795 85.465C82.0214 85.465 90.8915 76.6681 90.8915 65.8165C90.8915 54.9649 82.0214 46.168 71.0795 46.168C60.1377 46.168 51.2676 54.9649 51.2676 65.8165C51.2676 76.6681 60.1377 85.465 71.0795 85.465Z" fill="#A4A4B8"/>
<path d="M71.0795 82.0855C80.14 82.0855 87.4851 74.8011 87.4851 65.8152C87.4851 56.8294 80.14 49.5449 71.0795 49.5449C62.0189 49.5449 54.6738 56.8294 54.6738 65.8152C54.6738 74.8011 62.0189 82.0855 71.0795 82.0855Z" fill="#C8C8E0"/>
<path d="M71.08 77.2913C77.4711 77.2913 82.6521 72.153 82.6521 65.8146C82.6521 59.4762 77.4711 54.3379 71.08 54.3379C64.6888 54.3379 59.5078 59.4762 59.5078 65.8146C59.5078 72.153 64.6888 77.2913 71.08 77.2913Z" fill="#A4A4B8"/>
<path d="M80.3983 37.7581C80.3983 38.6866 79.6413 39.4388 78.705 39.4388H63.4577C62.5221 39.4388 61.7637 38.6866 61.7637 37.7581C61.7637 36.8309 62.5221 36.0801 63.4577 36.0801H78.705C79.6413 36.0801 80.3983 36.8315 80.3983 37.7581Z" fill="#FFC816"/>
<path d="M96.0621 85.4638C96.0621 86.3163 95.3661 87.0065 94.5079 87.0065C93.6497 87.0065 92.9531 86.3163 92.9531 85.4638C92.9531 84.614 93.6497 83.9238 94.5079 83.9238C95.3661 83.9238 96.0621 84.614 96.0621 85.4638Z" fill="#C8C8E0"/>
<path d="M96.0633 43.5527H89.2988V46.9141H96.0633V43.5527Z" fill="#0D0D0D"/>
<path d="M52.935 43.5527H46.1699V46.9141H52.935V43.5527Z" fill="#D4D4ED"/>
<path d="M75.2168 60.1513C75.2168 65.5435 70.8063 69.9176 65.3679 69.9176C59.9281 69.9176 55.5176 65.5435 55.5176 60.1513C55.5176 54.755 59.9281 50.3809 65.3679 50.3809C70.8063 50.3815 75.2168 54.7557 75.2168 60.1513Z" fill="#E6E6F7"/>
<path d="M80.4932 77.6001C81.854 77.6001 82.9572 76.5061 82.9572 75.1565C82.9572 73.8069 81.854 72.7129 80.4932 72.7129C79.1324 72.7129 78.0293 73.8069 78.0293 75.1565C78.0293 76.5061 79.1324 77.6001 80.4932 77.6001Z" fill="#E6E6F7"/>
<path d="M26.7324 82.0575L27.6142 82.944L28.5005 82.0619L34.1072 76.4812L35.1625 77.5419L29.5556 83.1228L29.5553 83.123L27.6085 85.0596L25.6716 83.1127L25.6715 83.1126L23.8379 81.2692L24.8987 80.214L26.7324 82.0575ZM34.2844 76.3048C34.2843 76.3049 34.2842 76.305 34.284 76.3052L34.2844 76.3048ZM27.7848 85.2368L27.7844 85.2364L27.7848 85.2368ZM29.5075 64.7871C20.6716 64.7871 13.5156 71.9422 13.5156 80.7776C13.5156 89.6129 20.6716 96.7681 29.5075 96.7681C38.3434 96.7681 45.4993 89.6129 45.4993 80.7776C45.4993 71.9422 38.3434 64.7871 29.5075 64.7871Z" fill="#43BF73" stroke="white" stroke-width="2.5"/>
</svg>
