<svg width="97" height="102" viewBox="0 0 97 102" fill="none" xmlns="http://www.w3.org/2000/svg">
<path d="M93.8264 24.8264C92.5802 23.0613 90.6549 21.5292 87.671 19.8849L72.2289 11.3312L57.8232 3.29532C50.8816 -0.56293 47.5135 -1.38723 40.1968 2.73428L24.7859 11.3312L10.3757 19.3627C8.88493 20.1655 7.44954 21.0607 6.07855 22.0428C4.98239 22.8276 4.01939 23.7726 3.2242 24.8437C3.02765 25.1069 2.8445 25.3831 2.67476 25.6637L2.62563 25.7543C1.99137 26.95 1.5672 28.2393 1.37043 29.5694C1.1599 30.961 1.06282 32.3665 1.08009 33.7729V68.1864C1.08009 72.0317 1.67864 74.7117 2.89811 76.6625C4.11757 78.6132 6.12768 80.2704 9.39299 82.0916L10.3578 82.6268H10.4025L24.8083 90.6669L33.7778 95.6516L40.2236 99.2336C43.5827 101.128 46.1065 101.953 48.5275 101.953L48.5007 102C50.9218 102 53.4456 101.137 56.8047 99.2811L63.2505 95.6818L72.22 90.6799L86.6436 82.6527C93.5852 78.7685 95.9527 76.3474 95.9527 68.1864V34.8993C95.9393 30.2944 95.6266 27.3209 93.8264 24.8264Z" fill="#80B2D9"/>
<path d="M56.3311 11.6165C60.0394 10.9015 63.8583 12.2027 66.3493 15.0301L86.5891 38.0023C89.0801 40.8296 89.8648 44.7535 88.6476 48.2958L78.7576 77.0776C77.5403 80.6199 74.5061 83.2426 70.7979 83.9576L40.6681 89.7671C36.9599 90.4821 33.141 89.1809 30.6499 86.3536L10.4102 63.3813C7.91916 60.554 7.13446 56.6301 8.35169 53.0878L18.2417 24.306C19.4589 20.7637 22.4931 18.141 26.2014 17.426L56.3311 11.6165Z" fill="#88C3F1"/>
<path d="M69.8539 41.2807C75.9116 41.2807 80.8379 36.3589 80.8379 30.3118C80.8379 24.2646 75.9117 19.3437 69.8539 19.3437C63.7961 19.3437 58.8699 24.2634 58.8699 30.3106C58.8699 36.3578 63.7973 41.2807 69.8539 41.2807Z" fill="#AAD6F9"/>
<path d="M69.8555 19.3437C63.7978 19.3437 58.8715 24.2634 58.8715 30.3106C58.8715 36.3578 63.7989 41.2806 69.8555 41.2806" fill="#8BC2EC"/>
<path d="M69.8539 20.6946C64.5309 20.6946 60.2163 25.0021 60.2163 30.3158C60.2163 35.6295 64.5309 39.937 69.8539 39.937C75.1759 39.937 79.4905 35.6295 79.4905 30.3158C79.4905 25.0021 75.1769 20.6946 69.8539 20.6946ZM69.8539 18C76.6546 18 82.1875 23.5238 82.1875 30.3158C82.1875 37.1078 76.6556 42.6316 69.8539 42.6316C63.0522 42.6316 57.5193 37.1079 57.5193 30.3158C57.5193 23.5237 63.0532 18 69.8539 18Z" fill="#1791BC" stroke="#1791BC" stroke-width="0.5"/>
<path d="M69.8613 23.3906C66.0315 23.3906 62.9261 26.4901 62.9261 30.3161" stroke="#1791BC" stroke-miterlimit="10" stroke-linecap="round" stroke-linejoin="round"/>
<path d="M69.8567 37.2398C73.6886 37.2398 76.793 34.1403 76.793 30.3164" stroke="#1791BC" stroke-miterlimit="10" stroke-linecap="round" stroke-linejoin="round"/>
<path d="M69.8613 26.1602C67.5646 26.1602 65.7005 28.0193 65.7005 30.3145" stroke="#1791BC" stroke-miterlimit="10" stroke-linecap="round" stroke-linejoin="round"/>
<path d="M69.8557 34.4707C72.1556 34.4707 74.0176 32.6116 74.0176 30.3164" stroke="#1791BC" stroke-miterlimit="10" stroke-linecap="round" stroke-linejoin="round"/>
<path d="M69.8489 32.7827C68.484 32.7827 67.3776 31.678 67.3776 30.3152C67.3776 28.9524 68.484 27.8477 69.8489 27.8477C71.2138 27.8477 72.3203 28.9524 72.3203 30.3152C72.3203 31.678 71.2138 32.7827 69.8489 32.7827Z" fill="#1F6397"/>
<path d="M46.4987 48.5914C45.1053 49.9837 45.1053 52.2408 46.4987 53.6331C47.8921 55.0254 50.1549 55.0254 51.5494 53.6331C52.9429 52.2408 71.5856 31.37 70.1912 29.9767C68.7988 28.5844 47.8923 47.1991 46.4987 48.5914Z" fill="#78777F"/>
<path d="M70.1875 29.9806C68.7962 28.5883 47.8896 47.202 46.4952 48.5953C45.1007 49.9886 45.1018 52.2447 46.4952 53.637" fill="#9995A3"/>
<path d="M28.2572 41.2807C22.1995 41.2807 17.2722 36.3589 17.2722 30.3118C17.2722 24.2646 22.1994 19.3437 28.2572 19.3437C34.315 19.3437 39.2422 24.2634 39.2422 30.3116C39.2422 36.3599 34.3138 41.2807 28.2572 41.2807Z" fill="#A9D6F9"/>
<path d="M28.2572 19.3437C34.3148 19.3437 39.2422 24.2634 39.2422 30.3106C39.2422 36.3578 34.3138 41.2795 28.2572 41.2795" fill="#8BC2EC"/>
<path d="M28.2572 20.6946C22.9362 20.6946 18.6206 25.0021 18.6206 30.3158C18.6206 35.6295 22.9362 39.937 28.2572 39.937C33.5802 39.937 37.8958 35.6295 37.8958 30.3158C37.8958 25.0021 33.5802 20.6946 28.2572 20.6946ZM28.2572 18C35.0578 18 40.5918 23.5237 40.5918 30.3158C40.5918 37.1079 35.0589 42.6316 28.2572 42.6316C21.4554 42.6316 15.9225 37.1079 15.9225 30.3158C15.9225 23.5237 21.4554 18 28.2572 18Z" fill="#1791BC" stroke="#1791BC" stroke-width="0.5"/>
<path d="M28.2562 23.3906C32.086 23.3906 35.1914 26.4901 35.1914 30.3161" stroke="#1791BC" stroke-miterlimit="10" stroke-linecap="round" stroke-linejoin="round"/>
<path d="M28.2578 37.2398C24.4259 37.2398 21.3215 34.1403 21.3215 30.3164" stroke="#1791BC" stroke-miterlimit="10" stroke-linecap="round" stroke-linejoin="round"/>
<path d="M28.2552 26.1602C30.5519 26.1602 32.416 28.0193 32.416 30.3145" stroke="#1791BC" stroke-miterlimit="10" stroke-linecap="round" stroke-linejoin="round"/>
<path d="M28.2578 34.4707C25.958 34.4707 24.096 32.6116 24.096 30.3164" stroke="#1791BC" stroke-miterlimit="10" stroke-linecap="round" stroke-linejoin="round"/>
<path d="M28.2522 32.7848C26.8867 32.7848 25.7798 31.6796 25.7798 30.3162C25.7798 28.9529 26.8867 27.8477 28.2522 27.8477C29.6177 27.8477 30.7246 28.9529 30.7246 30.3162C30.7246 31.6796 29.6177 32.7848 28.2522 32.7848Z" fill="#1F6397"/>
<path d="M51.6092 48.5915C53.0027 49.9838 53.0027 52.2409 51.6092 53.6332C50.2169 55.0255 47.953 55.0255 46.5586 53.6332C45.1662 52.2409 26.5225 31.3701 27.9159 29.9768C29.3093 28.5834 50.2169 47.1992 51.6092 48.5915Z" fill="#9995A3"/>
<path d="M27.9178 29.9806C29.3112 28.5883 50.2178 47.202 51.6112 48.5953C53.0046 49.9876 53.0046 52.2447 51.6112 53.637" fill="#57555C"/>
<path d="M28.2572 60.7109C22.2004 60.7109 17.2722 65.6327 17.2722 71.6799C17.2722 77.727 22.2016 82.6467 28.2572 82.6467C34.3148 82.6467 39.2422 77.727 39.2422 71.6799C39.2422 65.6327 34.3139 60.7109 28.2572 60.7109Z" fill="#A9D6F9"/>
<path d="M28.2572 82.6467C34.3148 82.6467 39.2422 77.727 39.2422 71.6799C39.2422 65.6327 34.3138 60.7109 28.2572 60.7109" fill="#8BC2EC"/>
<path d="M28.2572 81.3004C33.5802 81.3004 37.8948 76.9929 37.8948 71.6792C37.8948 66.3655 33.5802 62.0581 28.2572 62.0581C22.9352 62.0581 18.6196 66.3655 18.6196 71.6792C18.6196 76.9929 22.9342 81.3004 28.2572 81.3004ZM28.2572 83.9949C21.4554 83.9949 15.9236 78.4711 15.9236 71.6791C15.9236 64.8871 21.4544 59.3633 28.2572 59.3633C35.0568 59.3633 40.5918 64.887 40.5918 71.6791C40.5918 78.4712 35.0568 83.9949 28.2572 83.9949Z" fill="#1791BC" stroke="#1791BC" stroke-width="0.5"/>
<path d="M28.2542 78.6052C32.083 78.6052 35.1895 75.5056 35.1895 71.6797" stroke="#1791BC" stroke-miterlimit="10" stroke-linecap="round" stroke-linejoin="round"/>
<path d="M28.2578 64.7578C24.4259 64.7578 21.3215 67.8573 21.3215 71.6813" stroke="#1791BC" stroke-miterlimit="10" stroke-linecap="round" stroke-linejoin="round"/>
<path d="M28.2533 75.8379C30.5489 75.8379 32.4141 73.9788 32.4141 71.6836" stroke="#1791BC" stroke-miterlimit="10" stroke-linecap="round" stroke-linejoin="round"/>
<path d="M28.2578 67.5273C25.9571 67.5273 24.0951 69.3865 24.0951 71.6817" stroke="#1791BC" stroke-miterlimit="10" stroke-linecap="round" stroke-linejoin="round"/>
<path d="M28.2532 74.1499C26.8883 74.1499 25.7818 73.0452 25.7818 71.6824C25.7818 70.3196 26.8883 69.2148 28.2532 69.2148C29.6181 69.2148 30.7246 70.3196 30.7246 71.6824C30.7246 73.0452 29.6181 74.1499 28.2532 74.1499Z" fill="#1F6397"/>
<path d="M51.6085 53.4063C53.0029 52.014 53.0029 49.7568 51.6085 48.3645C50.2161 46.9722 47.9523 46.9722 46.5578 48.3645C45.1665 49.7568 26.5227 70.6276 27.9172 72.021C29.3095 73.4133 50.2161 54.7985 51.6085 53.4063Z" fill="#9995A3"/>
<path d="M27.9191 72.0158C29.3104 73.4081 50.217 54.7944 51.6104 53.4011C53.0049 52.0088 53.0049 49.7517 51.6104 48.3594" fill="#57555C"/>
<path d="M69.8568 60.7109C75.9144 60.7109 80.8418 65.6327 80.8418 71.6799C80.8418 77.727 75.9134 82.6467 69.8568 82.6467C63.8002 82.6467 58.8718 77.727 58.8718 71.6799C58.8718 65.6327 63.8012 60.7109 69.8568 60.7109Z" fill="#A9D6F9"/>
<path d="M69.8555 82.6467C63.7987 82.6467 58.8705 77.727 58.8705 71.6799C58.8705 65.6327 63.7999 60.7109 69.8555 60.7109" fill="#8BC2EC"/>
<path d="M69.8539 81.3004C75.1759 81.3004 79.4915 76.9929 79.4915 71.6792C79.4915 66.3655 75.1759 62.0581 69.8539 62.0581C64.5309 62.0581 60.2163 66.3655 60.2163 71.6792C60.2163 76.9929 64.5309 81.3004 69.8539 81.3004ZM69.8539 83.9949C63.0522 83.9949 57.5193 78.4712 57.5193 71.6791C57.5193 64.887 63.0511 59.3633 69.8539 59.3633C76.6535 59.3634 82.1875 64.8872 82.1875 71.6792C82.1875 78.4713 76.6546 83.9949 69.8539 83.9949Z" fill="#1791BC" stroke="#1791BC" stroke-width="0.5"/>
<path d="M69.8613 78.6052C66.0305 78.6052 62.9261 75.5056 62.9261 71.6797" stroke="#1791BC" stroke-miterlimit="10" stroke-linecap="round" stroke-linejoin="round"/>
<path d="M69.8567 64.7578C73.6886 64.7578 76.793 67.8573 76.793 71.6813" stroke="#1791BC" stroke-miterlimit="10" stroke-linecap="round" stroke-linejoin="round"/>
<path d="M69.8613 75.8379C67.5636 75.8379 65.7005 73.9788 65.7005 71.6836" stroke="#1791BC" stroke-miterlimit="10" stroke-linecap="round" stroke-linejoin="round"/>
<path d="M69.8557 67.5273C72.1556 67.5273 74.0176 69.3865 74.0176 71.6817" stroke="#1791BC" stroke-miterlimit="10" stroke-linecap="round" stroke-linejoin="round"/>
<path d="M69.8548 74.1499C68.4899 74.1499 67.3834 73.0452 67.3834 71.6824C67.3834 70.3196 68.4899 69.2148 69.8548 69.2148C71.2197 69.2148 72.3262 70.3196 72.3262 71.6824C72.3262 73.0452 71.2197 74.1499 69.8548 74.1499Z" fill="#1F6397"/>
<path d="M46.4987 53.4063C45.1063 52.014 45.1063 49.7568 46.4987 48.3645C47.8921 46.9722 50.1549 46.9722 51.5494 48.3645C52.9429 49.7568 71.5867 70.6277 70.1933 72.021C68.7997 73.4143 47.8923 54.7985 46.4987 53.4063Z" fill="#9995A3"/>
<path d="M70.1953 72.0158C68.8019 73.4081 47.8954 54.7944 46.5009 53.4011C45.1085 52.0088 45.1085 49.7517 46.5009 48.3594" fill="#78777F"/>
<path d="M39.5218 50.9956C39.5218 47.578 38.7049 44.6497 37.5416 43.4144V39.4961H41.2553C42.3373 40.7745 45.4202 41.6979 49.0589 41.6979C52.6976 41.6979 55.7804 40.7756 56.8624 39.4961H60.5762V43.4144C59.4129 44.6497 58.596 47.578 58.596 50.9956C58.596 54.4132 59.4129 57.3414 60.5762 58.5767V62.495H56.8624C55.7804 61.2166 52.6976 60.2932 49.0589 60.2932C45.4202 60.2932 42.3373 61.2155 41.2553 62.495H37.5416V58.5767C38.7049 57.3413 39.5218 54.4132 39.5218 50.9956Z" fill="#78777F"/>
<path d="M53.029 54.1439C53.029 54.2394 53.1061 54.3152 53.2006 54.3152H55.598C55.6936 54.3152 55.7695 54.2393 55.7695 54.1439C55.7695 54.0485 55.6935 53.9727 55.598 53.9727H53.2006C53.1061 53.9736 53.029 54.0495 53.029 54.1439Z" fill="#FFC816"/>
<path d="M53.029 55.765C53.029 55.8605 53.1061 55.9363 53.2006 55.9363H55.598C55.6936 55.9363 55.7695 55.8604 55.7695 55.765C55.7695 55.6696 55.6935 55.5937 55.598 55.5937H53.2006C53.1061 55.5936 53.029 55.6696 53.029 55.765Z" fill="#FFC816"/>
<path d="M53.029 57.39C53.029 57.4855 53.1061 57.5613 53.2006 57.5613H55.598C55.6936 57.5613 55.7695 57.4854 55.7695 57.39C55.7695 57.2946 55.6935 57.2188 55.598 57.2188H53.2006C53.1061 57.2186 53.029 57.2946 53.029 57.39Z" fill="#FFC816"/>
<path d="M44.7004 48.6909C43.6602 48.6909 42.8169 47.8489 42.8169 46.8103C42.8169 45.7717 43.6602 44.9297 44.7004 44.9297C45.7407 44.9297 46.584 45.7717 46.584 46.8103C46.584 47.8489 45.7407 48.6909 44.7004 48.6909Z" fill="#FFC816"/>
</svg>
