<svg width="20" height="22" viewBox="0 0 20 22" fill="none" xmlns="http://www.w3.org/2000/svg">
<path d="M10.908 11.9141H9.08984V13.7474H10.908V11.9141Z" fill="#1F6397"/>
<path d="M10.908 15.5859H9.08984V17.4193H10.908V15.5859Z" fill="#1F6397"/>
<path d="M14.5447 15.5859H12.7266V17.4193H14.5447V15.5859Z" fill="#1F6397"/>
<path d="M7.27326 11.9141H5.45508V13.7474H7.27326V11.9141Z" fill="#1F6397"/>
<path d="M18.1818 3.66667H16.3636V0.916667C16.3636 0.41038 15.9566 0 15.4545 0C14.9524 0 14.5455 0.41038 14.5455 0.916667V6.41667C13.5413 6.41667 12.7273 5.59585 12.7273 4.58333V3.66667H6.36364V0.916667C6.36364 0.41038 5.95665 0 5.45455 0C4.95244 0 4.54545 0.41038 4.54545 0.916667V6.41667C3.54131 6.41667 2.72727 5.59585 2.72727 4.58333V3.66667H1.81818C0.818182 3.66667 0 4.49161 0 5.5V20.1667C0 21.175 0.818182 22 1.81818 22H18.1818C19.186 22 20 21.1792 20 20.1667V9.16667V8.25V5.5C20 4.48743 19.186 3.66667 18.1818 3.66667ZM18.1818 20.1667C14.2105 20.1667 5.85716 20.1667 1.81818 20.1667V9.16667H18.1818V20.1667Z" fill="#1F6397"/>
</svg>
