<svg width="15" height="15" viewBox="0 0 15 15" fill="none" xmlns="http://www.w3.org/2000/svg">
<path d="M5.33202 12.5391H2.05078C0.919651 12.5391 0 13.4591 0 14.5898C0 14.8166 0.183449 15 0.410156 15H6.97265C7.19935 15 7.3828 14.8166 7.3828 14.5898C7.3828 13.4591 6.46315 12.5391 5.33202 12.5391Z" fill="white"/>
<path d="M9.26481 6.55078L7.43555 8.38011C9.08588 10.1492 10.265 11.328 10.7999 11.97L12.9706 9.79947C12.3212 9.26 11.0297 8.19726 9.26481 6.55078Z" fill="white"/>
<path d="M10.7008 2.22103V2.21282L8.93713 0.449123C8.33177 -0.142569 7.31155 -0.175873 6.67307 0.506545C6.47675 0.719252 6.38944 0.932943 6.23828 1.22837L9.94612 4.93626C10.2278 4.79539 10.4477 4.70592 10.6681 4.50147C11.3023 3.88831 11.3486 2.86872 10.7008 2.22103Z" fill="white"/>
<path d="M2.20088 5.3125C1.93411 5.44971 1.69874 5.54886 1.50364 5.77188C0.89546 6.3409 0.792948 7.35932 1.44627 8.02774L3.20163 9.79138C3.83442 10.406 4.83372 10.3333 5.44928 9.71758C5.67634 9.49052 5.75996 9.29329 5.90048 9.01211C5.77834 8.88056 2.4202 5.51616 2.20088 5.3125Z" fill="white"/>
<path d="M5.79405 1.94141L2.89844 4.84529L6.37656 8.32341C9.00093 5.69852 8.46991 6.22694 9.28038 5.42773L5.79405 1.94141Z" fill="white"/>
<path d="M14.9463 11.7022C14.7895 11.0431 14.3051 10.5051 13.6751 10.2578L11.2539 12.6788C11.4946 13.3087 12.0398 13.7929 12.6987 13.9498C13.3986 14.1052 13.9946 13.9007 14.446 13.4494C14.9135 12.9737 15.1022 12.342 14.9463 11.7022Z" fill="white"/>
</svg>
