<svg width="20" height="19" viewBox="0 0 20 19" fill="none" xmlns="http://www.w3.org/2000/svg">
<path d="M6.32162 8.26778C5.95581 7.90914 5.37029 7.90914 5.00448 8.26778C4.62827 8.6366 4.62827 9.24246 5.00448 9.61129L7.93848 12.4877C8.32734 12.8689 8.94976 12.8689 9.33862 12.4877L17.5517 4.43577C17.9279 4.06694 17.9279 3.46109 17.5517 3.09226C17.1859 2.73362 16.6004 2.73362 16.2346 3.09226L8.63855 10.5392L6.32162 8.26778ZM18.2369 9.41003C17.7068 9.41003 17.2837 9.84205 17.2148 10.3677C16.7312 14.0603 13.4909 16.9381 9.59839 16.9381C5.3751 16.9381 1.91968 13.5504 1.91968 9.41003C1.91968 5.26962 5.3751 1.88201 9.59839 1.88201C10.1601 1.88201 10.6704 1.93236 11.1669 2.03305C11.5058 2.10177 11.8622 2.01511 12.1091 1.77306C12.6269 1.26541 12.42 0.391308 11.7109 0.239577C11.0185 0.09142 10.3085 0 9.59839 0C4.31927 0 0 4.23452 0 9.41003C0 14.5856 4.31927 18.8201 9.59839 18.8201C14.5477 18.8201 18.6533 15.0981 19.147 10.3683C19.202 9.84102 18.767 9.41003 18.2369 9.41003Z" fill="#43BF73"/>
</svg>
