<svg width="113" height="124" viewBox="0 0 113 124" fill="none" xmlns="http://www.w3.org/2000/svg">
<path d="M48.048 2.12524C52.9805 -0.708412 59.0576 -0.708412 63.9901 2.12524L104.067 25.1487C108.999 27.9824 112.038 33.2192 112.038 38.8865V84.9335C112.038 90.6008 108.999 95.8376 104.067 98.6712L63.9901 121.695C59.0576 124.528 52.9805 124.528 48.048 121.695L7.97106 98.6712C3.03855 95.8376 0 90.6008 0 84.9335V38.8865C0 33.2192 3.03855 27.9824 7.97107 25.1487L48.048 2.12524Z" fill="#7FB1D8"/>
<path d="M48.048 2.12524C52.9805 -0.708412 59.0576 -0.708412 63.9901 2.12524L104.067 25.1487C108.999 27.9824 112.038 33.2192 112.038 38.8865V84.9335C112.038 90.6008 108.999 95.8376 104.067 98.6712L63.9901 121.695C59.0576 124.528 52.9805 124.528 48.048 121.695L7.97106 98.6712C3.03855 95.8376 0 90.6008 0 84.9335V38.8865C0 33.2192 3.03855 27.9824 7.97107 25.1487L48.048 2.12524Z" fill="#7FB1D8"/>
<mask id="mask0" mask-type="alpha" maskUnits="userSpaceOnUse" x="0" y="0" width="113" height="124">
<path d="M48.048 2.12524C52.9805 -0.708412 59.0576 -0.708412 63.9901 2.12524L104.067 25.1487C108.999 27.9824 112.038 33.2192 112.038 38.8865V84.9335C112.038 90.6008 108.999 95.8376 104.067 98.6712L63.9901 121.695C59.0576 124.528 52.9805 124.528 48.048 121.695L7.97106 98.6712C3.03855 95.8376 0 90.6008 0 84.9335V38.8865C0 33.2192 3.03855 27.9824 7.97107 25.1487L48.048 2.12524Z" fill="#7FB1D8"/>
</mask>
<g mask="url(#mask0)">
<path d="M65.248 14.7316C69.9313 13.8248 74.7544 15.475 77.9005 19.0605L103.462 48.193C106.608 51.7785 107.599 56.7546 106.062 61.2469L93.5714 97.7467C92.0341 102.239 88.202 105.565 83.5187 106.472L45.4666 113.839C40.7832 114.746 35.9602 113.096 32.8141 109.51L7.25249 80.3777C4.10646 76.7922 3.11544 71.8161 4.65272 67.3238L17.1432 30.824C18.6805 26.3317 22.5126 23.0058 27.1959 22.099L65.248 14.7316Z" fill="#88C3F1"/>
<path d="M23.7706 43.5974C22.8358 43.5974 22.0781 42.8277 22.0781 41.8774V31.2004C22.0781 30.2504 22.8355 29.4805 23.7706 29.4805C24.7054 29.4805 25.463 30.2502 25.463 31.2004V41.8776C25.4628 42.8277 24.7054 43.5974 23.7706 43.5974Z" fill="#4687D4"/>
<path d="M72.1736 76.1589H53.248V40.0415C53.248 39.0283 54.0564 38.207 55.0532 38.207H70.3682C71.3652 38.207 72.1734 39.0285 72.1734 40.0415V76.1589H72.1736Z" fill="#4E8AD1"/>
<path d="M72.1755 45.1309H53.25V76.1581H72.1755V45.1309Z" fill="#3C6EAA"/>
<path d="M72.176 76.1608H67.2695V38.209H70.3709C71.3679 38.209 72.176 39.0305 72.176 40.0435V76.1608Z" fill="#3C6EAA"/>
<path d="M74.7598 122.64H39.0117V50.4517C39.0117 49.4385 39.8201 48.6172 40.8169 48.6172H72.9545C73.9515 48.6172 74.7596 49.4387 74.7596 50.4517V122.64H74.7598Z" fill="#4E8AD1"/>
<path d="M45.0315 122.64H39.0605V60.0918H41.8005C43.5849 60.0918 45.0317 61.5621 45.0317 63.3755V122.64H45.0315Z" fill="#3C6EAA"/>
<path d="M81.1007 57.7851C80.1658 57.7851 79.4082 57.0153 79.4082 56.0651V50.8704C79.4082 49.9203 80.1656 49.1504 81.1007 49.1504C82.0355 49.1504 82.7931 49.9201 82.7931 50.8704V56.0651C82.7931 57.0151 82.0355 57.7851 81.1007 57.7851Z" fill="#365889"/>
<path d="M99.8331 57.7851C98.8983 57.7851 98.1406 57.0153 98.1406 56.0651V50.8704C98.1406 49.9203 98.898 49.1504 99.8331 49.1504C100.768 49.1504 101.526 49.9201 101.526 50.8704V56.0651C101.526 57.0151 100.768 57.7851 99.8331 57.7851Z" fill="#365889"/>
<path d="M106.142 57.6817V122.641H73.8691V56.0664H104.553C105.43 56.0666 106.142 56.7896 106.142 57.6817Z" fill="#3C6EAA"/>
<path d="M76.9094 56.0664H73.8672V122.641H76.9094V56.0664Z" fill="#365889"/>
<path d="M74.7587 122.64H69.5898V48.6172H72.9533C73.9504 48.6172 74.7585 49.4387 74.7585 50.4517V122.64H74.7587Z" fill="#3C6EAA"/>
<path d="M52.7913 76.5836H49.4134C48.7903 76.5836 48.2852 76.0703 48.2852 75.4371V72.004C48.2852 71.3708 48.7903 70.8574 49.4134 70.8574H52.7913C53.4143 70.8574 53.9195 71.3708 53.9195 72.004V75.4368C53.9195 76.0703 53.4143 76.5836 52.7913 76.5836Z" fill="#FFDF78"/>
<path d="M64.1389 76.5836H60.761C60.138 76.5836 59.6328 76.0703 59.6328 75.4371V72.004C59.6328 71.3708 60.138 70.8574 60.761 70.8574H64.1389C64.762 70.8574 65.2672 71.3708 65.2672 72.004V75.4368C65.2672 76.0703 64.762 76.5836 64.1389 76.5836Z" fill="#FFDF78"/>
<path d="M52.7913 64.8861H49.4134C48.7903 64.8861 48.2852 64.3728 48.2852 63.7396V60.3067C48.2852 59.6735 48.7903 59.1602 49.4134 59.1602H52.7913C53.4143 59.1602 53.9195 59.6735 53.9195 60.3067V63.7396C53.9195 64.3728 53.4143 64.8861 52.7913 64.8861Z" fill="#FFDF78"/>
<path d="M64.1389 64.8861H60.761C60.138 64.8861 59.6328 64.3728 59.6328 63.7396V60.3067C59.6328 59.6735 60.138 59.1602 60.761 59.1602H64.1389C64.762 59.1602 65.2672 59.6735 65.2672 60.3067V63.7396C65.2672 64.3728 64.762 64.8861 64.1389 64.8861Z" fill="#FFDF78"/>
<path d="M52.7913 88.1908H49.4134C48.7903 88.1908 48.2852 87.6774 48.2852 87.0443V83.6114C48.2852 82.9782 48.7903 82.4648 49.4134 82.4648H52.7913C53.4143 82.4648 53.9195 82.9782 53.9195 83.6114V87.0443C53.9195 87.6777 53.4143 88.1908 52.7913 88.1908Z" fill="#FFDF78"/>
<path d="M64.1389 88.1908H60.761C60.138 88.1908 59.6328 87.6774 59.6328 87.0443V83.6114C59.6328 82.9782 60.138 82.4648 60.761 82.4648H64.1389C64.762 82.4648 65.2672 82.9782 65.2672 83.6114V87.0443C65.2672 87.6777 64.762 88.1908 64.1389 88.1908Z" fill="#FFDF78"/>
<path d="M52.7913 99.8002H49.4134C48.7903 99.8002 48.2852 99.2868 48.2852 98.6536V95.2208C48.2852 94.5876 48.7903 94.0742 49.4134 94.0742H52.7913C53.4143 94.0742 53.9195 94.5876 53.9195 95.2208V98.6536C53.9195 99.2866 53.4143 99.8002 52.7913 99.8002Z" fill="#FFDF78"/>
<path d="M64.1389 99.8002H60.761C60.138 99.8002 59.6328 99.2868 59.6328 98.6536V95.2208C59.6328 94.5876 60.138 94.0742 60.761 94.0742H64.1389C64.762 94.0742 65.2672 94.5876 65.2672 95.2208V98.6536C65.2672 99.2866 64.762 99.8002 64.1389 99.8002Z" fill="#FFDF78"/>
<path d="M52.7913 111.406H49.4134C48.7903 111.406 48.2852 110.892 48.2852 110.259V106.826C48.2852 106.193 48.7903 105.68 49.4134 105.68H52.7913C53.4143 105.68 53.9195 106.193 53.9195 106.826V110.259C53.9195 110.892 53.4143 111.406 52.7913 111.406Z" fill="#FFDF78"/>
<path d="M64.1389 111.406H60.761C60.138 111.406 59.6328 110.892 59.6328 110.259V106.826C59.6328 106.193 60.138 105.68 60.761 105.68H64.1389C64.762 105.68 65.2672 106.193 65.2672 106.826V110.259C65.2672 110.892 64.762 111.406 64.1389 111.406Z" fill="#FFDF78"/>
<path d="M28.327 67.163H19.2148V43.7095C19.2148 42.6963 20.0232 41.875 21.02 41.875H26.5218C27.5188 41.875 28.327 42.6965 28.327 43.7095V67.163Z" fill="#4687D4"/>
<path d="M33.2341 76.1591H14.3086V52.7056C14.3086 51.6924 15.1169 50.8711 16.1138 50.8711H31.4287C32.4258 50.8711 33.2339 51.6926 33.2339 52.7056L33.2341 76.1591Z" fill="#4687D4"/>
<path d="M33.2341 58.7656H14.3086V76.1621H33.2341V58.7656Z" fill="#3C6EAA"/>
<path d="M33.2346 76.1591H28.3281V50.8711H31.4294C32.4265 50.8711 33.2346 51.6926 33.2346 52.7056V76.1591Z" fill="#3C6EAA"/>
<path d="M41.6446 122.638H5.89648V65.3482C5.89648 64.3349 6.70484 63.5137 7.70164 63.5137H39.8392C40.8362 63.5137 41.6444 64.3352 41.6444 65.3482V122.638H41.6446Z" fill="#4687D4"/>
<path d="M41.6435 122.638H36.4746V63.5137H39.8381C40.8351 63.5137 41.6432 64.3352 41.6432 65.3482V122.638H41.6435Z" fill="#4F8CD5"/>
<path d="M19.7366 78.5814H16.3587C15.7356 78.5814 15.2305 78.0681 15.2305 77.4349V74.002C15.2305 73.3688 15.7356 72.8555 16.3587 72.8555H19.7366C20.3597 72.8555 20.8648 73.3688 20.8648 74.002V77.4349C20.8648 78.0683 20.3599 78.5814 19.7366 78.5814Z" fill="#FFDF78"/>
<path d="M31.0823 78.5814H27.7044C27.0813 78.5814 26.5762 78.0681 26.5762 77.4349V74.002C26.5762 73.3688 27.0813 72.8555 27.7044 72.8555H31.0823C31.7054 72.8555 32.2105 73.3688 32.2105 74.002V77.4349C32.2105 78.0683 31.7056 78.5814 31.0823 78.5814Z" fill="#FFDF78"/>
<path d="M19.7366 90.1869H16.3587C15.7356 90.1869 15.2305 89.6735 15.2305 89.0403V85.6075C15.2305 84.9743 15.7356 84.4609 16.3587 84.4609H19.7366C20.3597 84.4609 20.8648 84.9743 20.8648 85.6075V89.0403C20.8648 89.6735 20.3599 90.1869 19.7366 90.1869Z" fill="#FFDF78"/>
<path d="M31.0823 90.1869H27.7044C27.0813 90.1869 26.5762 89.6735 26.5762 89.0403V85.6075C26.5762 84.9743 27.0813 84.4609 27.7044 84.4609H31.0823C31.7054 84.4609 32.2105 84.9743 32.2105 85.6075V89.0403C32.2105 89.6735 31.7056 90.1869 31.0823 90.1869Z" fill="#FFDF78"/>
<path d="M19.7366 101.796H16.3587C15.7356 101.796 15.2305 101.283 15.2305 100.65V97.2169C15.2305 96.5837 15.7356 96.0703 16.3587 96.0703H19.7366C20.3597 96.0703 20.8648 96.5837 20.8648 97.2169V100.65C20.8648 101.283 20.3599 101.796 19.7366 101.796Z" fill="#FFDF78"/>
<path d="M31.0823 101.796H27.7044C27.0813 101.796 26.5762 101.283 26.5762 100.65V97.2169C26.5762 96.5837 27.0813 96.0703 27.7044 96.0703H31.0823C31.7054 96.0703 32.2105 96.5837 32.2105 97.2169V100.65C32.2105 101.283 31.7056 101.796 31.0823 101.796Z" fill="#FFDF78"/>
<path d="M19.7366 113.402H16.3587C15.7356 113.402 15.2305 112.888 15.2305 112.255V108.822C15.2305 108.189 15.7356 107.676 16.3587 107.676H19.7366C20.3597 107.676 20.8648 108.189 20.8648 108.822V112.255C20.8648 112.888 20.3599 113.402 19.7366 113.402Z" fill="#FFDF78"/>
<path d="M31.0823 113.402H27.7044C27.0813 113.402 26.5762 112.888 26.5762 112.255V108.822C26.5762 108.189 27.0813 107.676 27.7044 107.676H31.0823C31.7054 107.676 32.2105 108.189 32.2105 108.822V112.255C32.2105 112.888 31.7056 113.402 31.0823 113.402Z" fill="#FFDF78"/>
<path d="M106.142 122.64H102.33V56.0664H104.552C105.43 56.0664 106.142 56.7894 106.142 57.6815V122.64Z" fill="#365889"/>
<path d="M86.6643 76.5817H83.2864C82.6634 76.5817 82.1582 76.0683 82.1582 75.4351V72.002C82.1582 71.3688 82.6634 70.8555 83.2864 70.8555H86.6643C87.2874 70.8555 87.7926 71.3688 87.7926 72.002V75.4349C87.7926 76.0683 87.2876 76.5817 86.6643 76.5817Z" fill="#FFDF78"/>
<path d="M98.01 76.5817H94.6321C94.0091 76.5817 93.5039 76.0683 93.5039 75.4351V72.002C93.5039 71.3688 94.0091 70.8555 94.6321 70.8555H98.01C98.6331 70.8555 99.1383 71.3688 99.1383 72.002V75.4349C99.1383 76.0683 98.6333 76.5817 98.01 76.5817Z" fill="#FFDF78"/>
<path d="M86.6643 88.1889H83.2864C82.6634 88.1889 82.1582 87.6755 82.1582 87.0423V83.6095C82.1582 82.9763 82.6634 82.4629 83.2864 82.4629H86.6643C87.2874 82.4629 87.7926 82.9763 87.7926 83.6095V87.0423C87.7926 87.6757 87.2876 88.1889 86.6643 88.1889Z" fill="#FFDF78"/>
<path d="M98.01 88.1889H94.6321C94.0091 88.1889 93.5039 87.6755 93.5039 87.0423V83.6095C93.5039 82.9763 94.0091 82.4629 94.6321 82.4629H98.01C98.6331 82.4629 99.1383 82.9763 99.1383 83.6095V87.0423C99.1383 87.6757 98.6333 88.1889 98.01 88.1889Z" fill="#FFDF78"/>
<path d="M86.6643 99.7963H83.2864C82.6634 99.7963 82.1582 99.2829 82.1582 98.6497V95.2169C82.1582 94.5837 82.6634 94.0703 83.2864 94.0703H86.6643C87.2874 94.0703 87.7926 94.5837 87.7926 95.2169V98.6497C87.7926 99.2827 87.2876 99.7963 86.6643 99.7963Z" fill="#FFDF78"/>
<path d="M98.01 99.7963H94.6321C94.0091 99.7963 93.5039 99.2829 93.5039 98.6497V95.2169C93.5039 94.5837 94.0091 94.0703 94.6321 94.0703H98.01C98.6331 94.0703 99.1383 94.5837 99.1383 95.2169V98.6497C99.1383 99.2827 98.6333 99.7963 98.01 99.7963Z" fill="#FFDF78"/>
<path d="M86.6643 111.402H83.2864C82.6634 111.402 82.1582 110.888 82.1582 110.255V106.822C82.1582 106.189 82.6634 105.676 83.2864 105.676H86.6643C87.2874 105.676 87.7926 106.189 87.7926 106.822V110.255C87.7926 110.888 87.2876 111.402 86.6643 111.402Z" fill="#FFDF78"/>
<path d="M98.01 111.402H94.6321C94.0091 111.402 93.5039 110.888 93.5039 110.255V106.822C93.5039 106.189 94.0091 105.676 94.6321 105.676H98.01C98.6331 105.676 99.1383 106.189 99.1383 106.822V110.255C99.1383 110.888 98.6333 111.402 98.01 111.402Z" fill="#FFDF78"/>
<path d="M101.749 50.8688H79.1846C78.1894 50.8688 77.3828 50.0489 77.3828 49.0377V41.2237C77.3828 40.2122 78.1896 39.3926 79.1846 39.3926H101.749C102.745 39.3926 103.551 40.2125 103.551 41.2237V49.0377C103.551 50.0492 102.745 50.8688 101.749 50.8688Z" fill="#8DEAB1"/>
</g>
</svg>
