<svg width="35" height="38" viewBox="0 0 35 38" fill="none" xmlns="http://www.w3.org/2000/svg">
<path d="M17.0645 37.0981C16.2052 37.0981 15.2844 36.7986 14.0874 36.1098L8.53226 32.9953L3.34538 30.0605C0.859364 28.653 0 27.7546 0 24.7899V12.6913C0 11.0143 0.122766 9.93617 0.767289 9.00781L17.0645 18.2015V37.0981Z" fill="#FFC917"/>
<path d="M17.0645 37.0981C17.9238 37.0981 18.8446 36.7986 20.0415 36.1098L25.5967 32.9953L30.7836 30.0605C33.2696 28.653 34.129 27.7846 34.129 24.7899V12.6913C34.129 11.0143 34.0062 9.93617 33.3617 9.00781L17.0645 18.2015V37.0981Z" fill="#206396"/>
<path d="M20.0419 0.980721L25.5971 4.09521L30.7839 7.03001C32.0116 7.71879 32.8403 8.28778 33.362 9.00651L17.0648 18.2002L0.767578 9.00651C1.22795 8.37762 1.90317 7.80863 2.97737 7.20969L8.53255 4.09521L13.7194 1.19035C16.2361 -0.217158 17.4331 -0.486681 20.0419 0.980721ZM33.5462 9.33593C33.9452 10.0547 34.1293 10.983 34.1293 12.3007V12.69C34.1293 11.1926 34.0373 10.1744 33.5462 9.33593ZM33.4848 27.8731C33.0551 28.5918 32.3185 29.1908 31.1522 29.8496L30.8146 30.0293C32.1344 29.3106 32.9937 28.7116 33.4848 27.8731Z" fill="#80B2D9"/>
<path d="M17.0645 37.0981C16.2052 37.0981 15.2844 36.7986 14.0874 36.1098L8.53226 32.9953L3.34538 30.0605C0.859364 28.653 0 27.7546 0 24.7899V12.6913C0 11.0143 0.122766 9.93617 0.767289 9.00781L17.0645 18.2015V37.0981Z" fill="#FFC917"/>
<path d="M20.0419 0.980721L25.5971 4.09521L30.7839 7.03001C32.0116 7.71879 32.8403 8.28778 33.362 9.00651L17.0648 18.2002L0.767578 9.00651C1.22795 8.37762 1.90317 7.80863 2.97737 7.20969L8.53255 4.09521L13.7194 1.19035C16.2361 -0.217158 17.4331 -0.486681 20.0419 0.980721ZM33.5462 9.33593C33.9452 10.0547 34.1293 10.983 34.1293 12.3007V12.69C34.1293 11.1926 34.0373 10.1744 33.5462 9.33593ZM33.4848 27.8731C33.0551 28.5918 32.3185 29.1908 31.1522 29.8496L30.8146 30.0293C32.1344 29.3106 32.9937 28.7116 33.4848 27.8731Z" fill="#80B2D9"/>
</svg>
