<svg width="119" height="125" viewBox="0 0 119 125" fill="none" xmlns="http://www.w3.org/2000/svg">
<path d="M50.4073 3.30492C55.3399 0.471276 61.417 0.471276 66.3495 3.30492L106.426 26.3284C111.359 29.1621 114.397 34.3989 114.397 40.0662V86.1132C114.397 91.7805 111.359 97.0173 106.426 99.8509L66.3495 122.874C61.417 125.708 55.3399 125.708 50.4073 122.874L10.3304 99.8509C5.39793 97.0173 2.35938 91.7805 2.35938 86.1132V40.0662C2.35938 34.3989 5.39793 29.1621 10.3304 26.3284L50.4073 3.30492Z" fill="#7FB1D8"/>
<path d="M53.9445 3.30492C58.877 0.471276 64.9541 0.471276 69.8866 3.30492L109.963 26.3284C114.896 29.1621 117.935 34.3989 117.935 40.0662V86.1132C117.935 91.7805 114.896 97.0173 109.963 99.8509L69.8866 122.874C64.9541 125.708 58.877 125.708 53.9445 122.874L13.8675 99.8509C8.93504 97.0173 5.89648 91.7805 5.89648 86.1132V40.0662C5.89648 34.3989 8.93504 29.1621 13.8676 26.3284L53.9445 3.30492Z" fill="#7FB1D8"/>
<path d="M68.7428 14.2346C73.2682 13.3585 77.9286 14.953 80.9685 18.4176L105.668 46.5673C108.708 50.0318 109.665 54.8401 108.18 59.1808L96.1107 94.4494C94.6253 98.7901 90.9225 102.004 86.3972 102.88L49.6287 109.999C45.1033 110.875 40.4429 109.281 37.403 105.816L12.7037 77.6663C9.66378 74.2018 8.70618 69.3935 10.1916 65.0528L22.2608 29.7842C23.7462 25.4434 27.449 22.2297 31.9743 21.3535L68.7428 14.2346Z" fill="#88C3F1"/>
<path d="M82.8164 41.9987L86.9854 37.8301" stroke="#424A60" stroke-width="2" stroke-miterlimit="10" stroke-linecap="round"/>
<path d="M88.6528 31.1582L83.6484 36.1621L88.6519 41.1651L93.6563 36.1613L88.6528 31.1582Z" fill="#E6E6F7"/>
<path d="M62.3135 34.1973C59.9454 34.1973 57.6433 34.4744 55.4297 34.9826V42.4519H45.9949C45.3427 42.4519 44.8156 42.9791 44.8156 43.6312C44.8156 44.2833 45.3427 44.8104 45.9949 44.8104H55.4297V50.7066H40.0982C39.446 50.7066 38.9188 51.2337 38.9188 51.8858C38.9188 52.538 39.446 53.0651 40.0982 53.0651H55.4297V58.9613H34.2014C33.5492 58.9613 33.0221 59.4884 33.0221 60.1405C33.0221 60.7926 33.5492 61.3197 34.2014 61.3197H55.4297V67.2159H29.484C28.8319 67.2159 28.3047 67.743 28.3047 68.3952C28.3047 69.0473 28.8319 69.5744 29.484 69.5744H55.4297V75.4706H36.5601C35.9079 75.4706 35.3808 75.9977 35.3808 76.6498C35.3808 77.302 35.9079 77.8291 36.5601 77.8291H55.4297V83.7253H43.6362C42.984 83.7253 42.4569 84.2524 42.4569 84.9045C42.4569 85.5566 42.984 86.0837 43.6362 86.0837H55.4297V94.7323C57.6433 95.2405 59.9454 95.5176 62.3135 95.5176C79.2478 95.5176 92.9766 81.7901 92.9766 64.8575C92.9766 47.9248 79.2478 34.1973 62.3135 34.1973Z" fill="#16476D"/>
<path d="M61.1339 33.0195C58.7657 33.0195 56.4636 33.2967 54.25 33.8049V41.2742H44.8152C44.163 41.2742 43.6359 41.8013 43.6359 42.4534C43.6359 43.1056 44.163 43.6327 44.8152 43.6327H54.25V49.5289H38.9185C38.2663 49.5289 37.7391 50.056 37.7391 50.7081C37.7391 51.3602 38.2663 51.8873 38.9185 51.8873H54.25V57.7835H33.0217C32.3696 57.7835 31.8424 58.3106 31.8424 58.9628C31.8424 59.6149 32.3696 60.142 33.0217 60.142H54.25V66.0382H28.3043C27.6522 66.0382 27.125 66.5653 27.125 67.2174C27.125 67.8696 27.6522 68.3967 28.3043 68.3967H54.25V74.2929H35.3804C34.7283 74.2929 34.2011 74.82 34.2011 75.4721C34.2011 76.1242 34.7283 76.6513 35.3804 76.6513H54.25V82.5475H42.4565C41.8043 82.5475 41.2772 83.0746 41.2772 83.7268C41.2772 84.3789 41.8043 84.906 42.4565 84.906H54.25V93.5545C56.4636 94.0628 58.7657 94.3399 61.1339 94.3399C78.0681 94.3399 91.7969 80.6124 91.7969 63.6797C91.7969 46.747 78.0681 33.0195 61.1339 33.0195Z" fill="#4A4A5D"/>
<path fill-rule="evenodd" clip-rule="evenodd" d="M54 85.1289C56.0625 85.6973 58.2461 86 60.5 86C73.4805 86 84 75.9258 84 63.5C84 51.0742 73.4805 41 60.5 41C58.2461 41 56.0625 41.3027 54 41.8711V85.1289Z" fill="#A4A4B8"/>
<path fill-rule="evenodd" clip-rule="evenodd" d="M55 78.3984C56.4453 78.7891 57.9727 79 59.5508 79C68.6367 79 76 72.0605 76 63.5C76 54.9395 68.6367 48 59.5508 48C57.9727 48 56.4453 48.2109 55 48.6016V78.3984Z" fill="#C8C8E0"/>
<path d="M77.4925 53.2665C77.0821 52.8585 76.4359 52.8066 75.9676 53.1439L60.6986 64.1874C59.7033 64.9115 59.077 66.0306 58.9815 67.2582C58.886 68.4857 59.3306 69.6874 60.1998 70.5565C60.9935 71.3501 62.0478 71.7876 63.1694 71.7876C64.5115 71.7876 65.7828 71.1402 66.573 70.0541L77.6152 54.7901C77.9537 54.3219 77.903 53.6757 77.4925 53.2665Z" fill="#1A4460"/>
<path d="M76.3129 51.0517C75.9024 50.6436 75.2562 50.5918 74.788 50.929L59.5189 61.9726C58.5236 62.6966 57.8973 63.8157 57.8018 65.0433C57.7063 66.2709 58.1509 67.4725 59.0201 68.3416C59.8138 69.1365 60.8681 69.5739 61.9885 69.5739C63.3306 69.5739 64.6019 68.9265 65.3921 67.8405L76.4343 52.5764C76.774 52.1071 76.7233 51.4609 76.3129 51.0517Z" fill="#FFC816"/>
<path d="M58.9674 33.1178C59.7469 33.0589 60.5312 33.0188 61.3261 33.0188C62.121 33.0188 62.9052 33.0589 63.6848 33.1178V29.4811H66.6332C67.6097 29.4811 68.4022 28.6886 68.4022 27.7122C68.4022 26.7358 67.6097 25.9434 66.6332 25.9434H56.019C55.0425 25.9434 54.25 26.7358 54.25 27.7122C54.25 28.6886 55.0425 29.4811 56.019 29.4811H58.9674V33.1178Z" fill="#4A4A5D"/>
<path d="M61.3258 31.8379C60.6737 31.8379 60.1465 32.365 60.1465 33.0171V36.5548C60.1465 37.207 60.6737 37.7341 61.3258 37.7341C61.978 37.7341 62.5052 37.207 62.5052 36.5548V33.0171C62.5052 32.365 61.978 31.8379 61.3258 31.8379Z" fill="#A4A4B8"/>
<path d="M61.3258 89.6211C60.6737 89.6211 60.1465 90.1482 60.1465 90.8003V94.338C60.1465 94.9902 60.6737 95.5173 61.3258 95.5173C61.978 95.5173 62.5052 94.9902 62.5052 94.338V90.8003C62.5052 90.1482 61.978 89.6211 61.3258 89.6211Z" fill="#A4A4B8"/>
<path d="M91.7955 62.498H88.2575C87.6053 62.498 87.0781 63.0252 87.0781 63.6773C87.0781 64.3294 87.6053 64.8565 88.2575 64.8565H91.7955C92.4477 64.8565 92.9749 64.3294 92.9749 63.6773C92.9749 63.0252 92.4477 62.498 91.7955 62.498Z" fill="#A4A4B8"/>
<path d="M77.0537 36.1039C76.4888 35.7772 75.7682 35.9718 75.4427 36.5355L73.6737 39.6003C73.3482 40.1652 73.5416 40.8857 74.1053 41.2112C74.2905 41.3185 74.4933 41.3692 74.6938 41.3692C75.1019 41.3692 75.4981 41.1569 75.7163 40.7796L77.4853 37.7147C77.8108 37.151 77.6174 36.4293 77.0537 36.1039Z" fill="#A4A4B8"/>
<path d="M88.2783 77.9885L85.2144 76.2196C84.6506 75.893 83.9289 76.0852 83.6034 76.6512C83.2779 77.2161 83.4713 77.9366 84.035 78.2621L87.099 80.0309C87.2853 80.1382 87.487 80.1889 87.6875 80.1889C88.0955 80.1889 88.4918 79.9779 88.7099 79.5993C89.0366 79.0345 88.8432 78.314 88.2783 77.9885Z" fill="#A4A4B8"/>
<path d="M75.7171 86.5775C75.3904 86.0115 74.6675 85.8181 74.1061 86.1459C73.5412 86.4714 73.3478 87.1931 73.6745 87.7568L75.4435 90.8204C75.6628 91.199 76.0579 91.41 76.466 91.41C76.6665 91.41 76.8693 91.3593 77.0545 91.252C77.6194 90.9266 77.8128 90.2049 77.4861 89.6412L75.7171 86.5775Z" fill="#A4A4B8"/>
<path d="M84.6266 51.2947C84.8271 51.2947 85.03 51.244 85.2151 51.1367L88.2791 49.3678C88.844 49.0423 89.0374 48.3206 88.7107 47.757C88.3852 47.1921 87.6611 46.9975 87.0997 47.3254L84.0358 49.0942C83.4709 49.4197 83.2775 50.1402 83.6041 50.7051C83.8223 51.0836 84.2186 51.2947 84.6266 51.2947Z" fill="#A4A4B8"/>
</svg>
