<svg width="201" height="50" viewBox="0 0 201 50" fill="none" xmlns="http://www.w3.org/2000/svg">
<path d="M174.761 33.9563H170.92C170.571 34 170.221 33.8254 170.047 33.5198C164.547 26.8413 159.003 20.119 153.591 13.4405C153.023 12.873 152.936 12.0437 153.721 12.0437H157.999C158.174 12.0873 158.392 12.2183 158.523 12.3492L170.396 26.754V12.131C170.396 12.0873 170.44 12 170.527 12H174.805C174.848 12 174.936 12.0437 174.936 12.131V33.8254C174.892 33.9127 174.848 33.9563 174.761 33.9563Z" fill="#2E2E2E"/>
<path d="M143.987 16.1468H131.721V20.0754C131.721 20.5119 132.071 20.9048 132.507 20.9484H141.543C141.63 20.9484 141.674 20.9921 141.717 21.0794C141.717 21.123 141.717 21.123 141.717 21.1667L139.928 24.877C139.884 25.0079 139.753 25.0516 139.622 25.0952H131.765V28.9802C131.765 29.4167 132.114 29.8095 132.551 29.8532H145.951C146.039 29.8532 146.082 29.8968 146.126 29.9841C146.126 30.0278 146.126 30.0278 146.126 30.0714L144.336 33.7817C144.293 33.9127 144.162 33.9563 144.031 34H127.313C127.269 34 127.182 33.9563 127.182 33.869V12.9167C127.182 12.4365 127.574 12 128.098 12H145.908C145.995 12 146.039 12.0437 146.082 12.131C146.082 12.1746 146.082 12.1746 146.082 12.2183L144.293 15.9286C144.249 16.0595 144.118 16.1468 143.987 16.1468Z" fill="#2E2E2E"/>
<path d="M75.2817 33.8684H86.0198C88.9444 33.8684 91.3016 31.4676 91.3016 28.5866V17.3247C91.3016 14.4001 88.9444 12.043 86.0198 12.043H75.2817C72.3571 12.043 70 14.4438 70 17.3247V28.543C70 31.4676 72.3571 33.8684 75.2817 33.8684ZM76.9841 29.7652C75.631 29.7652 74.5397 28.6739 74.5397 27.2771V18.5906C74.5397 17.2374 75.631 16.1461 76.9841 16.1025H84.4921C85.8016 16.1461 86.8056 17.1938 86.8056 18.5033C86.8056 18.5469 86.8056 18.5469 86.8056 18.5906V27.2771C86.8929 28.543 85.8889 29.6779 84.623 29.7652C84.5794 29.7652 84.5357 29.7652 84.5357 29.7652H76.9841Z" fill="#2E2E2E"/>
<path d="M183.449 12.043H187.727C187.771 12.043 187.858 12.0866 187.858 12.1739V33.8684C187.858 33.912 187.814 33.9993 187.727 33.9993H183.449C183.406 33.9993 183.318 33.9557 183.318 33.8684V12.1303C183.318 12.0866 183.362 12.043 183.449 12.043Z" fill="#2E2E2E"/>
<path d="M195.889 23.6113V25.1391V33.8693C195.889 33.9129 195.932 34.0002 195.976 34.0002H200.254C200.297 34.0002 200.385 33.9566 200.385 33.8693V23.6113H195.889Z" fill="#2E2E2E"/>
<path d="M200.429 23.1318V23.6119H189.559C189.385 23.6119 189.254 23.481 189.254 23.3064C189.254 23.2627 189.254 23.2191 189.298 23.1754L190.782 19.2905C190.825 19.1596 190.956 19.0723 191.087 19.0723H196.413C198.595 19.0723 200.429 20.8619 200.429 23.1318Z" fill="#2E2E2E"/>
<path d="M106.71 27.539C106.055 27.539 106.012 27.539 106.274 26.9279L107.758 23.8723C107.976 23.4358 108.02 23.4358 108.543 23.4358H112.647C114 23.4358 115.135 22.3446 115.135 20.9477V18.6342C115.135 17.2811 114.043 16.1461 112.647 16.1461H104.309V33.8684C104.309 33.912 104.266 33.9993 104.178 33.9993H99.9005C99.8568 33.9993 99.7695 33.9557 99.7695 33.8684V12.9596C99.7695 12.4795 100.162 12.043 100.686 12.043H114.218C117.143 12.043 119.5 14.4001 119.5 17.3247V22.2573C119.5 25.1819 117.143 27.539 114.218 27.539H106.71Z" fill="#2E2E2E"/>
<path d="M157.652 21.7784V33.8261C157.652 33.8697 157.608 33.957 157.521 33.957H153.199C153.156 33.957 153.068 33.9134 153.068 33.8261C153.068 28.6316 153.068 22.5205 153.068 17.3697C153.068 15.8419 153.112 15.8856 153.898 16.8459L157.39 21.1237C157.608 21.3419 157.652 21.5602 157.652 21.7784Z" fill="#2E2E2E"/>
<path d="M23 49.9995C21.8417 49.9995 20.6007 49.5958 18.9874 48.6675L11.5 44.4697L4.50899 40.5141C1.15827 38.617 0 37.4061 0 33.4101V17.1034C0 14.843 0.165468 13.3899 1.03417 12.1387L23 24.5302V49.9995Z" fill="#FFC917"/>
<path d="M23 49.9995C24.1583 49.9995 25.3993 49.5958 27.0126 48.6675L34.5 44.4697L41.491 40.5141C44.8417 38.617 46 37.4465 46 33.4101V17.1034C46 14.843 45.8345 13.3899 44.9658 12.1387L23 24.5302V49.9995Z" fill="#206396"/>
<path d="M27.0116 1.32184L34.499 5.51963L41.49 9.47523C43.1447 10.4036 44.2616 11.1705 44.9649 12.1392L22.999 24.5307L1.0332 12.1392C1.65371 11.2916 2.56378 10.5247 4.01162 9.71741L11.499 5.51963L18.49 1.60438C21.8821 -0.292692 23.4954 -0.655962 27.0116 1.32184ZM45.2131 12.5832C45.7508 13.5519 45.999 14.8032 45.999 16.5792V17.1039C45.999 15.0857 45.8749 13.7134 45.2131 12.5832ZM45.1303 37.5681C44.5512 38.5368 43.5584 39.3441 41.9864 40.2321L41.5314 40.4743C43.3102 39.5055 44.4685 38.6983 45.1303 37.5681Z" fill="#80B2D9"/>
<path d="M23 49.9995C21.8417 49.9995 20.6007 49.5958 18.9874 48.6675L11.5 44.4697L4.50899 40.5141C1.15827 38.617 0 37.4061 0 33.4101V17.1034C0 14.843 0.165468 13.3899 1.03417 12.1387L23 24.5302V49.9995Z" fill="#FFC917"/>
<path d="M27.0116 1.32184L34.499 5.51963L41.49 9.47523C43.1447 10.4036 44.2616 11.1705 44.9649 12.1392L22.999 24.5307L1.0332 12.1392C1.65371 11.2916 2.56378 10.5247 4.01162 9.71741L11.499 5.51963L18.49 1.60438C21.8821 -0.292692 23.4954 -0.655962 27.0116 1.32184ZM45.2131 12.5832C45.7508 13.5519 45.999 14.8032 45.999 16.5792V17.1039C45.999 15.0857 45.8749 13.7134 45.2131 12.5832ZM45.1303 37.5681C44.5512 38.5368 43.5584 39.3441 41.9864 40.2321L41.5314 40.4743C43.3102 39.5055 44.4685 38.6983 45.1303 37.5681Z" fill="#80B2D9"/>
</svg>
